<svg width="375" height="104" viewBox="0 0 375 104" fill="none" xmlns="http://www.w3.org/2000/svg">
<g filter="url(#filter0_d_38_319)">
<path d="M-12.4818 46.404C-12.4818 46.404 23.8736 38.8074 35.1303 32.5038C54.466 21.7284 81.4498 13.4853 81.4498 13.4853C81.4498 13.4853 68.8466 20.2199 65.8304 29.2173C65.8304 29.2173 92.1679 10.8992 113.227 8.47477C113.227 8.47477 108.434 13.3775 108.326 18.8191C108.326 18.8191 130.085 4.54176 149.96 3.89524C144.466 8.36701 143.496 7.88212 138.595 15.1016C138.595 15.1016 160.247 0.662639 186.908 0.662638C186.908 0.662638 179.475 3.46423 177.159 9.39067C177.159 9.39067 196.064 0.66263 223.909 2.92546C223.909 2.92546 218.954 5.6193 216.1 9.66005C216.1 9.66005 237.105 4.05687 263.658 7.88212C263.658 7.88212 254.394 9.5523 250.732 13.9163C250.732 13.9163 275.992 9.87555 295.112 15.0477C295.112 15.0477 288.972 16.2869 283.748 21.2974C283.748 21.2974 306.638 19.1424 329.098 23.4525C329.098 23.4525 311.27 26.2002 311.27 31.2107C311.27 31.2107 325.004 23.9374 340.139 32.7732C354.035 40.9086 381.126 45.7575 387.482 46.2424C381.126 46.7811 354.035 51.63 340.139 59.7115C325.004 68.5473 311.27 61.274 311.27 61.274C311.27 66.3384 329.098 69.0322 329.098 69.0322C306.638 73.3424 283.748 71.1873 283.748 71.1873C288.972 76.1978 295.112 77.437 295.112 77.437C275.938 82.6092 250.732 78.5684 250.732 78.5684C254.394 82.9324 263.658 84.6026 263.658 84.6026C237.105 88.4279 216.1 82.8247 216.1 82.8247C218.954 86.8654 223.909 89.5593 223.909 89.5593C196.064 92.0376 177.159 83.3096 177.159 83.3096C179.529 89.236 186.961 92.0376 186.961 92.0376C160.247 92.0376 138.649 77.5986 138.649 77.5986C143.496 84.8181 144.466 84.3332 150.014 88.805C130.139 88.1585 108.38 73.8811 108.38 73.8811C108.541 79.3766 113.281 84.2255 113.281 84.2255C92.2218 81.801 65.8843 63.4829 65.8843 63.4829C68.9004 72.4803 81.5037 79.2149 81.5037 79.2149C81.5037 79.2149 54.5199 70.9718 35.1842 60.1964C23.9275 53.9467 -12.428 46.2962 -12.428 46.2962L-12.4818 46.404Z" fill="#BBFC70"/>
</g>
<defs>
<filter id="filter0_d_38_319" x="-18.7701" y="0.662598" width="406.252" height="103.172" filterUnits="userSpaceOnUse" color-interpolation-filters="sRGB">
<feFlood flood-opacity="0" result="BackgroundImageFix"/>
<feColorMatrix in="SourceAlpha" type="matrix" values="0 0 0 0 0 0 0 0 0 0 0 0 0 0 0 0 0 0 127 0" result="hardAlpha"/>
<feOffset dx="-4.49152" dy="10"/>
<feGaussianBlur stdDeviation="0.898305"/>
<feComposite in2="hardAlpha" operator="out"/>
<feColorMatrix type="matrix" values="0 0 0 0 0 0 0 0 0 0 0 0 0 0 0 0 0 0 0.15 0"/>
<feBlend mode="normal" in2="BackgroundImageFix" result="effect1_dropShadow_38_319"/>
<feBlend mode="normal" in="SourceGraphic" in2="effect1_dropShadow_38_319" result="shape"/>
</filter>
</defs>
</svg>
