<svg width="375" height="97" viewBox="0 0 375 97" fill="none" xmlns="http://www.w3.org/2000/svg">
<g filter="url(#filter0_d_38_320)">
<path d="M-12.4809 50.6712C-12.4809 50.6712 23.8746 58.2678 35.1313 64.5714C54.467 75.3467 81.4508 83.5899 81.4508 83.5899C81.4508 83.5899 68.8476 76.8553 65.8314 67.8579C65.8314 67.8579 92.1689 86.176 113.228 88.6004C113.228 88.6004 108.435 83.6976 108.327 78.2561C108.327 78.2561 130.086 92.5334 149.961 93.18C144.467 88.7082 143.497 89.1931 138.596 81.9736C138.596 81.9736 160.248 96.4125 186.909 96.4126C186.909 96.4126 179.476 93.611 177.16 87.6845C177.16 87.6845 196.065 96.4126 223.91 94.1497C223.91 94.1497 218.955 91.4559 216.101 87.4151C216.101 87.4151 237.106 93.0183 263.659 89.1931C263.659 89.1931 254.395 87.5229 250.733 83.1589C250.733 83.1589 275.993 87.1996 295.113 82.0275C295.113 82.0275 288.973 80.7883 283.749 75.7778C283.749 75.7778 306.639 77.9328 329.099 73.6227C329.099 73.6227 311.271 70.875 311.271 65.8644C311.271 65.8644 325.005 73.1378 340.14 64.302C354.036 56.1666 381.127 51.3177 387.483 50.8328C381.127 50.2941 354.036 45.4452 340.14 37.3636C325.005 28.5279 311.271 35.8012 311.271 35.8012C311.271 30.7368 329.099 28.043 329.099 28.043C306.639 23.7328 283.749 25.8879 283.749 25.8879C288.973 20.8774 295.113 19.6382 295.113 19.6382C275.939 14.466 250.733 18.5068 250.733 18.5068C254.395 14.1428 263.659 12.4726 263.659 12.4726C237.106 8.64733 216.101 14.2505 216.101 14.2505C218.955 10.2098 223.91 7.51592 223.91 7.51592C196.065 5.03759 177.16 13.7656 177.16 13.7656C179.53 7.83918 186.962 5.03759 186.962 5.03759C160.248 5.03759 138.65 19.4766 138.65 19.4766C143.497 12.2571 144.467 12.742 150.014 8.27019C130.14 8.91671 108.381 23.194 108.381 23.194C108.542 17.6986 113.282 12.8497 113.282 12.8497C92.2228 15.2742 65.8853 33.5923 65.8853 33.5923C68.9014 24.5948 81.5046 17.8603 81.5046 17.8603C81.5046 17.8603 54.5209 26.1034 35.1851 36.8787C23.9284 43.1284 -12.4271 50.7789 -12.4271 50.7789L-12.4809 50.6712Z" fill="#7ED957"/>
</g>
<defs>
<filter id="filter0_d_38_320" x="-18.7691" y="0.990988" width="406.252" height="95.4216" filterUnits="userSpaceOnUse" color-interpolation-filters="sRGB">
<feFlood flood-opacity="0" result="BackgroundImageFix"/>
<feColorMatrix in="SourceAlpha" type="matrix" values="0 0 0 0 0 0 0 0 0 0 0 0 0 0 0 0 0 0 127 0" result="hardAlpha"/>
<feOffset dx="-4.49152" dy="-2.25"/>
<feGaussianBlur stdDeviation="0.898305"/>
<feComposite in2="hardAlpha" operator="out"/>
<feColorMatrix type="matrix" values="0 0 0 0 0 0 0 0 0 0 0 0 0 0 0 0 0 0 0.15 0"/>
<feBlend mode="normal" in2="BackgroundImageFix" result="effect1_dropShadow_38_320"/>
<feBlend mode="normal" in="SourceGraphic" in2="effect1_dropShadow_38_320" result="shape"/>
</filter>
</defs>
</svg>
