<svg width="228" height="742" viewBox="0 0 228 742" fill="none" xmlns="http://www.w3.org/2000/svg">
<g filter="url(#filter0_d_50_621)">
<path d="M181.517 828.711C181.517 828.711 153.91 750.765 136.644 727.81C107.101 688.363 80.8636 631.287 80.8636 631.287C80.8636 631.287 99.4824 657.085 120.234 661.056C120.234 661.056 71.9602 608.411 60.3283 562.671C60.3283 562.671 72.5756 571.784 84.6136 570.398C84.6136 570.398 46.6213 526.649 39.2656 482.993C50.7708 493.78 49.9902 496.063 67.3811 504.723C67.3811 504.723 29.0643 461.26 21.1104 402.438C21.1104 402.438 29.5091 418.001 43.2758 421.343C43.2758 421.343 18.3788 382.236 15.0639 320.124C15.0639 320.124 22.4857 330.253 32.2526 335.346C32.2526 335.346 13.6234 290.672 14.1415 230.947C14.1415 230.947 20.5902 250.888 31.3114 257.666C31.3114 257.666 14.86 203.139 20.5672 159.41C20.5672 159.41 25.133 172.587 37.7466 182.619C37.7466 182.619 26.1627 132.758 28.9718 81.919C28.9718 81.919 40.3528 120.433 51.4077 118.938C51.4077 118.938 31.2628 90.8057 46.2423 54.7775C60.046 21.6915 62.6619 -39.5282 61.8356 -53.6952C64.9204 -39.8336 83.7012 18.4928 105.677 46.7408C129.687 77.4968 117.737 109.969 117.737 109.969C128.911 108.458 129.536 68.3208 129.536 68.3208C145.746 116.588 147.82 167.735 147.82 167.735C157.317 154.714 158.219 140.797 158.219 140.797C175.351 181.559 173.956 238.378 173.956 238.378C182.491 228.995 183.413 208.058 183.413 208.058C199.774 265.501 193.678 313.518 193.678 313.518C201.742 306.014 206.207 294.278 206.207 294.278C219.983 354.975 206.366 399.29 206.366 399.29C218.735 392.293 222.698 375.058 222.698 375.058C230.668 433.999 205.254 485.959 205.254 485.959C219.737 473.11 218.378 471.116 226.589 457.542C231.092 501.584 206.083 553.852 206.083 553.852C218.159 551.856 227.444 539.952 227.444 539.952C228.377 587.14 195.819 650.714 195.819 650.714C214.771 641.375 225.869 611.559 225.869 611.559C225.869 611.559 215.732 673.553 197.727 719.429C187.296 746.13 181.263 828.625 181.263 828.625L181.517 828.711Z" fill="#7ED957"/>
</g>
<defs>
<filter id="filter0_d_50_621" x="0.130859" y="-53.6953" width="227.333" height="891.407" filterUnits="userSpaceOnUse" color-interpolation-filters="sRGB">
<feFlood flood-opacity="0" result="BackgroundImageFix"/>
<feColorMatrix in="SourceAlpha" type="matrix" values="0 0 0 0 0 0 0 0 0 0 0 0 0 0 0 0 0 0 127 0" result="hardAlpha"/>
<feOffset dx="-10" dy="5"/>
<feGaussianBlur stdDeviation="2"/>
<feComposite in2="hardAlpha" operator="out"/>
<feColorMatrix type="matrix" values="0 0 0 0 0 0 0 0 0 0 0 0 0 0 0 0 0 0 0.15 0"/>
<feBlend mode="normal" in2="BackgroundImageFix" result="effect1_dropShadow_50_621"/>
<feBlend mode="normal" in="SourceGraphic" in2="effect1_dropShadow_50_621" result="shape"/>
</filter>
</defs>
</svg>
