<svg width="1435" height="56" viewBox="0 0 1435 56" fill="none" xmlns="http://www.w3.org/2000/svg">
<g filter="url(#filter0_ii_0_145)">
<path d="M-5 1.00149C-5 1.00149 103.472 34.5718 175 34.5718C246.528 34.5718 283.472 1.00149 355 1.00149C426.528 1.00149 463.472 34.4441 535 34.5718C607.22 34.7008 644.582 0.741038 716.802 1.00149C787.638 1.25696 824.163 34.4428 895 34.5718C966.528 34.702 1003.47 1.00149 1075 1.00149C1146.53 1.00149 1183.47 34.5718 1255 34.5718C1326.53 34.5718 1435 1.00149 1435 1.00149V22.4293C1435 22.4293 1326.53 55.9996 1255 55.9996C1183.47 55.9996 1146.53 22.4293 1075 22.4293C1003.47 22.4293 966.528 56.1299 895 55.9996C824.163 55.8707 787.638 22.6848 716.802 22.4293C644.582 22.1689 607.22 56.1286 535 55.9996C463.472 55.8719 426.528 22.4293 355 22.4293C283.472 22.4293 246.528 55.9996 175 55.9996C103.472 55.9996 -5 22.4293 -5 22.4293V1.00149Z" fill="#494949"/>
</g>
<g filter="url(#filter1_ii_0_145)">
<path d="M-5 22.3073V0.814727C-5 0.814727 102.824 34.4864 173.925 34.4864C245.027 34.4864 281.749 0.814727 352.851 0.814727C423.952 0.814727 460.675 34.3582 531.776 34.4864C603.565 34.6157 640.704 0.553489 712.492 0.814727C725.297 0.786745 752.202 1.60664 757.384 5.1101C762.566 8.61356 759.543 20.8027 757.384 26.4593C749.133 24.7938 728.602 21.6316 712.492 22.3073C640.704 22.046 603.565 56.1083 531.776 55.9789C460.675 55.8508 423.952 22.3073 352.851 22.3073C281.749 22.3073 245.027 55.9789 173.925 55.9789C102.824 55.9789 -5 22.3073 -5 22.3073Z" fill="url(#paint0_linear_0_145)"/>
</g>
<defs>
<filter id="filter0_ii_0_145" x="-5" y="1" width="1442.15" height="67.1791" filterUnits="userSpaceOnUse" color-interpolation-filters="sRGB">
<feFlood flood-opacity="0" result="BackgroundImageFix"/>
<feBlend mode="normal" in="SourceGraphic" in2="BackgroundImageFix" result="shape"/>
<feColorMatrix in="SourceAlpha" type="matrix" values="0 0 0 0 0 0 0 0 0 0 0 0 0 0 0 0 0 0 127 0" result="hardAlpha"/>
<feOffset/>
<feGaussianBlur stdDeviation="1.79104"/>
<feComposite in2="hardAlpha" operator="arithmetic" k2="-1" k3="1"/>
<feColorMatrix type="matrix" values="0 0 0 0 1 0 0 0 0 1 0 0 0 0 1 0 0 0 0.1 0"/>
<feBlend mode="normal" in2="shape" result="effect1_innerShadow_0_145"/>
<feColorMatrix in="SourceAlpha" type="matrix" values="0 0 0 0 0 0 0 0 0 0 0 0 0 0 0 0 0 0 127 0" result="hardAlpha"/>
<feOffset dx="2.14925" dy="12.1791"/>
<feGaussianBlur stdDeviation="13.2537"/>
<feComposite in2="hardAlpha" operator="arithmetic" k2="-1" k3="1"/>
<feColorMatrix type="matrix" values="0 0 0 0 0.0125 0 0 0 0 0.0125 0 0 0 0 0.0125 0 0 0 0.6 0"/>
<feBlend mode="normal" in2="effect1_innerShadow_0_145" result="effect2_innerShadow_0_145"/>
</filter>
<filter id="filter1_ii_0_145" x="-5" y="0.813232" width="767.395" height="67.3451" filterUnits="userSpaceOnUse" color-interpolation-filters="sRGB">
<feFlood flood-opacity="0" result="BackgroundImageFix"/>
<feBlend mode="normal" in="SourceGraphic" in2="BackgroundImageFix" result="shape"/>
<feColorMatrix in="SourceAlpha" type="matrix" values="0 0 0 0 0 0 0 0 0 0 0 0 0 0 0 0 0 0 127 0" result="hardAlpha"/>
<feOffset/>
<feGaussianBlur stdDeviation="1.79104"/>
<feComposite in2="hardAlpha" operator="arithmetic" k2="-1" k3="1"/>
<feColorMatrix type="matrix" values="0 0 0 0 1 0 0 0 0 1 0 0 0 0 1 0 0 0 0.1 0"/>
<feBlend mode="normal" in2="shape" result="effect1_innerShadow_0_145"/>
<feColorMatrix in="SourceAlpha" type="matrix" values="0 0 0 0 0 0 0 0 0 0 0 0 0 0 0 0 0 0 127 0" result="hardAlpha"/>
<feOffset dx="2.14925" dy="12.1791"/>
<feGaussianBlur stdDeviation="13.2537"/>
<feComposite in2="hardAlpha" operator="arithmetic" k2="-1" k3="1"/>
<feColorMatrix type="matrix" values="0 0 0 0 0.0125 0 0 0 0 0.0125 0 0 0 0 0.0125 0 0 0 0.6 0"/>
<feBlend mode="normal" in2="effect1_innerShadow_0_145" result="effect2_innerShadow_0_145"/>
</filter>
<linearGradient id="paint0_linear_0_145" x1="-5" y1="28.3963" x2="760.245" y2="28.3963" gradientUnits="userSpaceOnUse">
<stop stop-color="#7ED957"/>
<stop offset="1" stop-color="#C1FF72"/>
</linearGradient>
</defs>
</svg>
